# File created by Blade
# Date/Time:  Wed Jan 21 17:34:04 2015
# Frame Rate: 120.000 fps
#------------------------------------------------------
:FULLY-SPECIFIED
:DEGREES
1068
root 19.944565 5.425777 -20.319516 -172.559075 -31.645962 -141.851309
Spine -16.687164 -6.270101 40.142214
Head -11.883339 -23.425979 6.923993
LeftShoulder -11.198385 -15.212830 9.921700
LeftArm -21.169179 1.680709 -84.365761
LeftForeArm 11.226346 -0.000000 -1.374670
LeftHand 8.845276 0.000000 -2.539838
LeftHandThumb1 -26.253704 0.000000 33.147579
RightShoulder -25.558149 -8.082730 2.199949
RightArm -61.521017 71.091737 -11.941711
RightForeArm 6.702899 -0.000000 66.417232
RightHand -1.458693 0.000000 0.657751
RightHandThumb1 -24.326973 -0.000000 -32.862282
LeftUpLeg -99.981721 -24.189007 -51.799380
LeftLeg 137.547468 -0.000000 -0.000000
LeftFoot 29.695259 17.672189 7.304093
LeftToeBase 27.571681 -0.000000 -0.000000
RightUpLeg 15.511572 36.734628 -14.555090
RightLeg 111.820898 -0.000000 -0.000000
RightFoot 41.307852 -19.741672 -13.552769
RightToeBase 20.319999 -0.000000 -0.000000
1069
root 19.948106 5.421052 -20.314066 -172.523950 -31.608596 -141.879371
Spine -16.515115 -6.298601 40.104100
Head -11.778258 -23.572039 6.928546
LeftShoulder -11.226078 -15.229073 9.939913
LeftArm -21.187421 1.626650 -84.360977
LeftForeArm 11.176496 -0.000000 -1.250899
LeftHand 8.787930 -0.000000 -2.423671
LeftHandThumb1 -26.253704 0.000000 33.147579
RightShoulder -25.481444 -8.193563 1.931464
RightArm -60.677640 70.799127 -11.457439
RightForeArm 6.271252 -0.000000 64.263752
RightHand -1.438999 -0.000000 0.680907
RightHandThumb1 -24.326973 -0.000000 -32.862282
LeftUpLeg -100.028056 -24.214499 -51.789057
LeftLeg 137.553936 -0.000000 -0.000000
LeftFoot 29.645254 17.550988 7.377982
LeftToeBase 27.739468 -0.000000 -0.000000
RightUpLeg 15.366261 36.385955 -14.757700
RightLeg 111.067145 -0.000000 -0.000000
RightFoot 42.184452 -19.514276 -14.431950
RightToeBase 19.962470 -0.000000 -0.000000
1070
root 19.950716 5.415987 -20.310176 -172.515153 -31.566719 -141.900641
Spine -16.292288 -6.345746 40.069268
Head -11.718583 -23.686188 6.933890
LeftShoulder -11.325849 -15.176010 9.964059
LeftArm -21.092228 1.657884 -84.391363
LeftForeArm 11.117926 -0.000000 -1.122964
LeftHand 8.757496 -0.000000 -2.359990
LeftHandThumb1 -26.253704 0.000000 33.147579
RightShoulder -25.357389 -8.094620 1.594575
RightArm -59.707203 70.191977 -10.865908
RightForeArm 5.755642 -0.000000 62.083628
RightHand -1.448992 -0.000000 0.934982
RightHandThumb1 -24.326973 -0.000000 -32.862282
LeftUpLeg -100.057730 -24.220881 -51.783710
LeftLeg 137.572788 -0.000000 -0.000000
LeftFoot 29.565950 17.393957 7.499118
LeftToeBase 27.904839 -0.000000 -0.000000
RightUpLeg 15.310120 36.102331 -14.881361
RightLeg 110.429133 -0.000000 -0.000000
RightFoot 42.164579 -19.406407 -14.528391
RightToeBase 20.075820 -0.000000 -0.000000
1071
root 19.954247 5.410978 -20.303987 -172.448532 -31.522962 -141.925525
Spine -16.128383 -6.374947 40.045420
Head -11.636617 -23.807220 6.927207
LeftShoulder -11.399776 -15.152572 9.999973
LeftArm -21.078875 1.729738 -84.442453
LeftForeArm 10.896400 0.000000 -0.994611
LeftHand 8.717798 -0.000000 -2.230550
LeftHandThumb1 -26.253704 0.000000 33.147579
RightShoulder -25.122122 -7.916084 1.194831
RightArm -58.618927 69.232181 -10.127263
RightForeArm 5.545826 -0.000000 59.803829
RightHand -1.447401 -0.000000 0.985903
RightHandThumb1 -24.326973 -0.000000 -32.862282
LeftUpLeg -100.132646 -24.272303 -51.776978
LeftLeg 137.571861 -0.000000 -0.000000
LeftFoot 29.563552 17.351640 7.533472
LeftToeBase 27.852577 -0.000000 -0.000000
RightUpLeg 15.170648 35.803347 -15.058371
RightLeg 109.831131 -0.000000 -0.000000
RightFoot 42.086562 -19.489862 -14.239613
RightToeBase 19.896537 -0.000000 -0.000000
1072
root 19.955203 5.406808 -20.299609 -172.447081 -31.485568 -141.928546
Spine -15.870904 -6.445992 40.030650
Head -11.685821 -23.857682 7.005133
LeftShoulder -11.468885 -15.218776 10.020006
LeftArm -21.140057 1.824714 -84.499265
LeftForeArm 10.653937 -0.000000 -0.834094
LeftHand 8.673983 -0.000000 -2.084158
LeftHandThumb1 -26.253704 0.000000 33.147579
RightShoulder -24.999411 -7.915850 0.778970
RightArm -57.742618 68.851963 -9.584795
RightForeArm 5.005242 -0.000000 57.311857
RightHand -1.396948 0.000000 1.311007
RightHandThumb1 -24.326973 -0.000000 -32.862282
LeftUpLeg -100.161893 -24.273161 -51.763104
LeftLeg 137.570532 -0.000000 -0.000000
LeftFoot 29.551128 17.304731 7.546755
LeftToeBase 27.937003 -0.000000 -0.000000
RightUpLeg 15.097599 35.467221 -15.190420
RightLeg 109.202149 -0.000000 -0.000000
RightFoot 41.934358 -19.294198 -14.243055
RightToeBase 20.009381 -0.000000 -0.000000
1073
root 19.956599 5.402124 -20.293671 -172.436144 -31.442490 -141.941920
Spine -15.619613 -6.532764 40.010351
Head -11.702146 -23.858716 7.066978
LeftShoulder -11.542841 -15.206438 10.038376
LeftArm -21.120153 1.757851 -84.500122
LeftForeArm 10.595641 -0.000000 -0.685391
LeftHand 8.636891 0.000000 -1.980522
LeftHandThumb1 -26.253704 0.000000 33.147579
RightShoulder -24.657334 -7.637602 0.468692
RightArm -56.224785 67.343782 -8.511245
RightForeArm 5.676243 -0.000000 54.876857
RightHand -1.518644 -0.000000 1.227456
RightHandThumb1 -24.326973 -0.000000 -32.862282
LeftUpLeg -100.193602 -24.280795 -51.767284
LeftLeg 137.571793 -0.000000 -0.000000
LeftFoot 29.525611 17.250312 7.606527
LeftToeBase 28.000938 -0.000000 -0.000000
RightUpLeg 15.005518 35.124628 -15.342169
RightLeg 108.589504 -0.000000 -0.000000
RightFoot 41.685797 -19.263789 -13.995775
RightToeBase 20.236622 -0.000000 -0.000000
1074
root 19.959592 5.395994 -20.285837 -172.402265 -31.375882 -141.961660
Spine -15.355453 -6.614130 39.955322
Head -11.737211 -23.913228 7.219919
LeftShoulder -11.611583 -15.191207 10.108744
LeftArm -21.124385 1.655827 -84.537428
LeftForeArm 10.556916 -0.000000 -0.516089
LeftHand 8.640404 -0.000000 -1.776812
LeftHandThumb1 -26.253704 0.000000 33.147579
RightShoulder -24.302184 -7.432594 0.065968
RightArm -54.809992 65.973286 -7.426873
RightForeArm 6.129942 -0.000000 52.179313
RightHand -1.424138 -0.000000 1.265120
RightHandThumb1 -24.326973 -0.000000 -32.862282
LeftUpLeg -100.268143 -24.293778 -51.765500
LeftLeg 137.568890 -0.000000 -0.000000
LeftFoot 29.541758 17.240932 7.576186
LeftToeBase 27.988071 -0.000000 -0.000000
RightUpLeg 14.846783 34.752294 -15.563935
RightLeg 107.974431 -0.000000 -0.000000
RightFoot 41.668184 -19.183001 -13.853985
RightToeBase 19.691035 -0.000000 -0.000000
1075
root 19.962289 5.389957 -20.281227 -172.393437 -31.329714 -141.979127
Spine -15.076078 -6.725751 39.899939
Head -11.770449 -23.855002 7.358263
LeftShoulder -11.642951 -15.285425 10.170716
LeftArm -21.275723 1.527401 -84.542695
LeftForeArm 10.513554 -0.000000 -0.275110
LeftHand 8.578697 -0.000000 -1.611709
LeftHandThumb1 -26.253704 0.000000 33.147579
RightShoulder -24.014946 -7.217119 -0.325068
RightArm -53.267963 64.650890 -6.260277
RightForeArm 6.768566 -0.000000 49.360307
RightHand -1.278482 0.000000 1.245163
RightHandThumb1 -24.326973 -0.000000 -32.862282
LeftUpLeg -100.305420 -24.302329 -51.785538
LeftLeg 137.575586 -0.000000 -0.000000
LeftFoot 29.535421 17.247042 7.579805
LeftToeBase 27.922084 -0.000000 -0.000000
RightUpLeg 14.759883 34.348162 -15.722409
RightLeg 107.367567 -0.000000 -0.000000
RightFoot 41.465646 -18.838223 -13.831002
RightToeBase 20.258007 -0.000000 -0.000000
1076
root 19.964854 5.383534 -20.277541 -172.385745 -31.308690 -141.990986
Spine -14.804992 -6.879843 39.848371
Head -11.858956 -23.849200 7.575608
LeftShoulder -11.672029 -15.331101 10.236529
LeftArm -21.421973 1.443571 -84.584442
LeftForeArm 10.428251 0.000000 0.020552
LeftHand 8.539240 -0.000000 -1.382036
LeftHandThumb1 -26.253704 0.000000 33.147579
RightShoulder -23.675836 -7.060401 -0.748811
RightArm -51.831009 63.332265 -5.152501
RightForeArm 7.479017 -0.000000 46.387416
RightHand -1.143040 0.000000 1.282087
RightHandThumb1 -24.326973 -0.000000 -32.862282
LeftUpLeg -100.337827 -24.323714 -51.794325
LeftLeg 137.579088 -0.000000 -0.000000
LeftFoot 29.544059 17.218345 7.564498
LeftToeBase 27.904626 -0.000000 -0.000000
RightUpLeg 14.695880 33.879074 -15.867392
RightLeg 106.791618 -0.000000 -0.000000
RightFoot 41.099056 -18.739863 -13.465065
RightToeBase 20.312012 -0.000000 -0.000000
1077
root 19.966648 5.377013 -20.271339 -172.405270 -31.263715 -142.007731
Spine -14.461923 -7.001596 39.757441
Head -11.945740 -23.739551 7.829896
LeftShoulder -11.623877 -15.446121 10.302414
LeftArm -21.657164 1.284229 -84.607819
LeftForeArm 10.346674 -0.000000 0.411360
LeftHand 8.438473 -0.000000 -1.174533
LeftHandThumb1 -26.253704 0.000000 33.147579
RightShoulder -23.398868 -6.947879 -1.141269
RightArm -50.514676 62.202746 -4.193156
RightForeArm 8.014618 -0.000000 43.309873
RightHand -1.275301 -0.000000 1.376251
RightHandThumb1 -24.326973 -0.000000 -32.862282
LeftUpLeg -100.361438 -24.312570 -51.803358
LeftLeg 137.582866 -0.000000 -0.000000
LeftFoot 29.510600 17.156495 7.603779
LeftToeBase 27.996347 -0.000000 -0.000000
RightUpLeg 14.612050 33.391141 -16.048666
RightLeg 106.184327 -0.000000 -0.000000
RightFoot 41.057501 -18.685701 -13.228448
RightToeBase 19.991774 -0.000000 -0.000000
1078
root 19.969754 5.369496 -20.263652 -172.430280 -31.179943 -142.013049
Spine -14.084570 -7.107323 39.659439
Head -12.058615 -23.689379 8.103703
LeftShoulder -11.541861 -15.567260 10.383066
LeftArm -21.947385 1.294977 -84.728502
LeftForeArm 10.042833 0.000000 0.855912
LeftHand 8.352225 -0.000000 -0.883115
LeftHandThumb1 -26.253704 0.000000 33.147579
RightShoulder -23.080314 -6.981245 -1.503980
RightArm -49.259485 61.187986 -3.200288
RightForeArm 8.508588 0.000000 40.232130
RightHand -1.477945 -0.000000 1.080566
RightHandThumb1 -24.326973 -0.000000 -32.862282
LeftUpLeg -100.423550 -24.292604 -51.802671
LeftLeg 137.585181 -0.000000 -0.000000
LeftFoot 29.515522 17.173816 7.580230
LeftToeBase 28.105984 -0.000000 -0.000000
RightUpLeg 14.504963 32.875565 -16.287894
RightLeg 105.577192 -0.000000 -0.000000
RightFoot 41.084322 -18.637412 -13.217645
RightToeBase 19.706178 -0.000000 -0.000000
